<?xml version="1.0" standalone="no"?>
<!DOCTYPE svg PUBLIC "-//W3C//DTD SVG 20010904//EN"
 "http://www.w3.org/TR/2001/REC-SVG-20010904/DTD/svg10.dtd">
<svg version="1.0" xmlns="http://www.w3.org/2000/svg"
 width="230.000000pt" height="230.000000pt" viewBox="0 0 230.000000 230.000000"
 preserveAspectRatio="xMidYMid meet">
<metadata>
Created by potrace 1.11, written by Peter Selinger 2001-2013
</metadata>
<g transform="translate(0.000000,230.000000) scale(0.100000,-0.100000)"
fill="#000000" stroke="none">
<path d="M960 2290 c0 -5 6 -10 14 -10 8 0 18 5 21 10 3 6 -3 10 -14 10 -12 0
-21 -4 -21 -10z"/>
<path d="M1100 2290 c0 -5 5 -10 10 -10 6 0 10 5 10 10 0 6 -4 10 -10 10 -5 0
-10 -4 -10 -10z"/>
<path d="M1159 2287 c18 -18 13 -29 -9 -17 -16 9 -20 8 -20 -5 0 -9 5 -13 10
-10 6 3 10 1 10 -4 0 -6 -4 -11 -10 -11 -5 0 -10 -15 -10 -34 0 -19 5 -38 10
-41 6 -3 10 -38 10 -76 0 -42 -4 -68 -9 -64 -17 10 -24 -65 -18 -195 3 -69 8
-133 10 -141 2 -8 2 -11 0 -6 -3 4 -9 5 -14 1 -5 -3 -9 6 -9 20 0 13 -3 32 -7
42 -5 12 -3 15 6 9 10 -6 11 -3 1 14 -6 12 -8 31 -4 43 3 11 1 24 -5 27 -14 9
-29 138 -32 269 -3 84 -10 114 -26 98 -9 -8 -4 -171 8 -270 8 -68 8 -90 -1
-96 -9 -6 -10 -20 -2 -56 6 -27 9 -51 6 -53 -2 -2 -4 1 -4 7 0 7 -7 12 -15 12
-15 0 -21 16 -28 80 -10 80 -46 248 -61 284 -9 21 -13 43 -9 49 3 6 1 7 -5 3
-7 -4 -10 7 -9 34 1 39 11 52 20 28 4 -10 8 -10 15 1 8 11 12 10 21 -5 9 -16
12 -17 21 -4 19 29 11 38 -30 34 -22 -2 -40 1 -40 6 0 6 -4 10 -9 10 -4 0 -7
-16 -5 -35 1 -22 -1 -33 -8 -29 -6 4 -8 -2 -3 -17 5 -18 4 -20 -4 -9 -19 27
-19 5 1 -95 11 -55 23 -120 28 -145 18 -102 32 -167 42 -199 8 -25 7 -35 -2
-41 -7 -4 -10 -12 -6 -18 3 -6 2 -13 -3 -16 -4 -3 -19 31 -32 77 -13 45 -29
93 -36 107 -7 14 -13 31 -13 38 0 7 -4 20 -10 30 -23 41 -50 107 -50 121 0 14
-2 14 -11 1 -9 -12 -10 -11 -6 7 5 24 -20 40 -36 24 -9 -9 5 -73 34 -156 6
-16 13 -41 15 -55 2 -14 -3 -6 -12 18 -9 23 -20 40 -25 36 -5 -3 -9 -2 -8 3 1
4 1 17 0 28 -2 19 -3 19 -13 -2 -8 -17 -6 -32 13 -70 12 -26 25 -50 28 -53 3
-3 7 -21 8 -40 2 -19 7 -36 13 -38 5 -2 10 -8 10 -14 0 -6 -6 -6 -15 2 -8 7
-15 9 -15 5 0 -4 -7 -2 -15 5 -8 6 -14 15 -13 18 2 10 -9 38 -43 107 -15 33
-24 62 -19 63 12 4 13 32 2 32 -4 0 -13 -5 -20 -12 -7 -7 -12 -8 -12 -2 0 5
-25 47 -55 94 -30 46 -56 89 -58 95 -3 5 -8 7 -11 3 -4 -3 11 -44 33 -90 46
-93 48 -104 25 -129 -10 -11 -12 -19 -5 -24 6 -3 11 1 11 9 0 38 35 -7 38 -48
0 -5 6 -13 14 -17 9 -6 9 -9 1 -9 -7 0 -16 8 -21 17 -9 15 -12 15 -47 -1 -26
-13 -34 -21 -25 -26 7 -5 18 -6 25 -4 6 3 29 -16 51 -41 21 -26 48 -56 60 -68
11 -13 19 -28 16 -35 -2 -7 1 -12 7 -12 6 0 11 -4 11 -10 0 -5 -7 -10 -15 -10
-20 0 -19 -19 0 -26 14 -6 13 -8 -2 -19 -15 -11 -21 -8 -46 18 -17 19 -27 38
-24 49 3 11 0 18 -9 18 -7 0 -32 27 -54 60 -22 33 -47 60 -55 60 -8 0 -15 7
-15 16 0 9 -8 23 -17 30 -17 13 -17 13 0 14 20 0 22 11 5 28 -18 18 -28 15
-29 -10 0 -16 -2 -18 -6 -8 -3 8 -11 18 -17 23 -8 5 -7 10 3 16 11 7 9 10 -9
16 -32 10 -45 -7 -31 -42 11 -28 11 -28 7 7 l-5 35 19 -40 c10 -22 19 -45 19
-50 1 -9 32 -46 113 -133 17 -18 28 -36 24 -39 -3 -4 -12 -1 -18 5 -7 7 -18
12 -25 12 -18 0 -16 -37 2 -44 8 -3 15 -13 15 -22 0 -10 6 -14 14 -11 15 6 50
-26 52 -46 4 -43 6 -51 11 -39 6 15 23 6 23 -14 0 -21 -41 2 -47 27 -3 10 -9
17 -13 14 -12 -8 -40 6 -40 19 0 6 -9 17 -20 24 -12 7 -18 17 -15 22 3 5 0 7
-8 4 -8 -3 -37 18 -70 51 -31 30 -62 55 -68 55 -6 0 -32 15 -57 32 -26 18 -49
34 -52 36 -2 2 2 7 9 11 9 6 10 14 5 22 -5 8 -9 18 -9 24 0 5 -8 11 -19 13
-15 3 -18 0 -12 -21 3 -14 0 -37 -9 -53 -17 -32 -8 -46 28 -46 13 0 35 -9 48
-19 18 -15 19 -18 5 -12 -13 4 -17 3 -13 -4 4 -6 4 -13 0 -16 -5 -2 -2 -2 5
-1 6 2 12 -5 12 -16 0 -23 10 -26 28 -8 9 9 12 9 13 -2 0 -8 2 -27 4 -41 6
-48 -22 -64 -74 -42 -37 14 -52 6 -46 -26 2 -9 4 -19 4 -23 1 -12 31 -9 31 2
0 6 9 10 21 10 13 0 18 -4 13 -12 -5 -7 -2 -10 7 -6 8 3 26 -10 43 -31 17 -20
24 -30 16 -23 -8 6 -21 12 -29 12 -18 0 18 -33 54 -50 17 -8 91 -58 130 -87 6
-5 22 -14 38 -22 74 -39 -4 -35 -138 6 -44 14 -90 26 -102 26 -11 1 -19 5 -17
8 2 4 -13 9 -34 13 -20 3 -48 9 -62 13 -23 6 -24 6 -8 -10 9 -9 25 -17 35 -17
10 -1 29 -7 41 -14 23 -12 23 -13 -12 -14 -20 -1 -36 2 -36 6 0 14 -144 43
-169 34 -18 -6 -9 -12 56 -31 43 -13 92 -29 108 -37 46 -20 148 -54 163 -54
12 0 12 3 2 15 -11 13 -7 15 23 15 20 0 38 -4 42 -9 3 -5 20 -8 38 -5 37 6 89
-7 94 -23 3 -7 -6 -10 -24 -7 -15 3 -57 6 -93 8 l-65 3 52 -16 c28 -9 55 -20
60 -24 9 -10 -59 0 -97 13 -36 13 -188 28 -232 22 -36 -4 -53 10 -25 22 6 2 3
4 -8 3 -11 -2 -25 -6 -32 -10 -17 -11 -4 -39 16 -33 9 3 34 6 56 8 30 2 40 -1
40 -12 0 -10 -13 -17 -38 -20 -43 -6 -51 -23 -12 -28 22 -3 23 -5 11 -18 -8
-8 -25 -15 -38 -15 -13 -1 35 -9 107 -19 l130 -18 -138 2 -137 1 0 -32 c0 -18
0 -36 0 -40 0 -5 -20 -10 -45 -13 -25 -3 -47 -9 -48 -15 -3 -15 105 -18 228
-5 152 15 303 20 345 11 32 -6 27 -9 -63 -28 -71 -15 -108 -19 -130 -12 -33 9
-50 3 -28 -10 9 -6 0 -11 -29 -16 -24 -4 -57 -13 -75 -21 -18 -7 -35 -10 -39
-7 -3 4 -6 1 -6 -5 0 -7 -14 -12 -32 -12 -45 0 -82 -11 -69 -20 11 -6 -126
-67 -142 -62 -4 1 -7 -2 -7 -8 0 -14 15 -13 161 16 72 14 139 24 149 21 13 -3
17 0 13 9 -4 10 4 14 27 14 18 0 29 4 25 10 -3 6 -1 10 5 10 6 0 8 5 5 11 -4
6 -1 9 6 8 8 -1 27 3 42 9 16 7 40 12 55 11 26 -1 26 -1 -5 -10 -47 -14 -40
-21 12 -13 25 3 52 3 62 0 14 -6 12 -10 -13 -25 -34 -21 -144 -63 -144 -56 0
3 -11 -2 -25 -11 -23 -15 -25 -15 -25 0 0 9 -8 16 -19 16 -25 0 -38 -20 -20
-31 10 -6 4 -9 -18 -9 -33 0 -39 -9 -25 -40 7 -15 42 -24 42 -11 0 4 6 8 13 8
6 0 22 3 34 7 41 13 16 -17 -38 -48 -28 -15 -49 -30 -47 -32 4 -4 67 17 84 28
6 4 33 15 60 24 98 33 361 161 368 180 3 7 14 10 27 7 18 -5 21 -3 16 10 -5
12 -1 17 12 17 11 0 26 3 35 6 29 11 16 -11 -23 -38 -30 -21 -41 -24 -50 -15
-7 7 -12 8 -11 2 5 -21 -1 -35 -13 -35 -7 0 -20 -11 -30 -24 -10 -13 -32 -30
-48 -36 -16 -7 -29 -19 -29 -27 0 -8 -5 -11 -10 -8 -6 4 -28 -2 -48 -13 -25
-13 -44 -17 -59 -11 -13 5 -28 3 -40 -6 -10 -8 -26 -15 -36 -15 -19 0 -150
-72 -232 -127 -27 -18 -55 -33 -61 -33 -15 0 -26 -28 -14 -35 6 -3 41 10 79
30 39 20 74 34 79 31 5 -3 12 3 15 14 3 11 12 20 21 20 9 0 16 5 16 10 0 6 5
10 10 10 7 0 7 -6 1 -19 -8 -15 -7 -20 8 -24 10 -2 27 0 37 5 11 6 8 -1 -8
-16 -49 -44 -30 -76 21 -37 24 18 57 18 46 0 -3 -4 -12 -6 -20 -2 -11 4 -13 1
-9 -11 4 -11 -4 -21 -25 -33 -17 -10 -31 -23 -31 -30 0 -7 -14 -22 -30 -35
-17 -12 -28 -28 -26 -35 3 -7 -6 -26 -21 -43 -33 -40 -24 -49 13 -14 16 14 45
38 64 53 19 14 52 42 73 61 21 19 45 39 53 43 8 4 14 18 14 30 1 25 22 57 39
57 6 0 11 5 11 10 0 14 37 12 44 -2 3 -7 4 -4 1 8 -3 13 0 21 8 21 9 0 12 -10
9 -29 -3 -20 0 -27 9 -25 8 2 11 2 6 0 -4 -3 -5 -9 -1 -14 3 -5 2 -8 -3 -7
-14 5 -48 -34 -63 -70 -7 -18 -27 -44 -44 -57 l-31 -25 27 0 c17 0 33 8 40 20
14 21 28 26 28 10 0 -6 -16 -33 -35 -60 -19 -27 -35 -54 -35 -59 0 -5 -7 -14
-15 -21 -8 -7 -15 -17 -15 -24 0 -6 19 10 43 34 56 60 87 85 87 72 0 -6 -6
-17 -13 -24 -7 -7 -21 -33 -31 -58 -10 -25 -26 -59 -37 -76 -10 -17 -19 -37
-19 -43 0 -20 40 8 53 37 6 15 17 30 23 34 6 4 19 25 29 47 15 35 21 40 41 35
20 -5 24 -2 24 17 1 34 23 59 56 62 28 2 28 2 29 -58 1 -33 -4 -71 -11 -85 -7
-14 -15 -45 -19 -70 l-7 -45 26 29 c14 16 26 37 26 48 0 13 8 18 30 18 17 0
30 -3 30 -6 0 -3 -11 -33 -24 -67 -13 -34 -27 -78 -31 -97 -4 -19 -9 -43 -11
-52 -7 -24 18 -23 39 0 9 9 22 44 30 77 9 38 15 50 16 33 1 -15 9 -31 19 -37
15 -8 17 -4 18 26 0 19 6 38 13 42 8 6 11 23 8 53 -5 43 5 79 18 66 10 -10
-14 -151 -28 -160 -9 -6 -9 -8 2 -8 7 0 11 -6 7 -15 -10 -26 13 -16 28 13 15
28 39 108 39 130 0 8 4 9 10 3 5 -5 9 -43 10 -85 0 -72 8 -94 21 -61 3 8 8 44
12 80 5 47 11 65 21 65 10 0 12 6 8 20 -3 11 -2 20 3 20 6 0 8 9 5 20 -3 11 0
20 6 20 6 0 12 -10 12 -22 1 -13 5 -5 9 17 6 32 8 23 10 -50 2 -50 3 -98 2
-107 -1 -10 2 -18 7 -18 5 0 11 -11 13 -25 3 -15 1 -22 -5 -18 -6 4 -8 0 -4
-11 4 -10 8 -34 8 -54 l2 -37 7 35 7 35 2 -32 c1 -31 3 -33 36 -33 28 0 35 4
35 19 0 10 -9 21 -20 24 -15 4 -20 14 -20 41 0 20 -5 36 -11 36 -8 0 -10 28
-8 88 6 178 -1 517 -11 502 -6 -10 -9 -5 -8 18 1 22 4 29 10 20 6 -10 10 -10
18 2 9 13 10 12 8 -4 -2 -10 3 -21 10 -23 6 -3 12 0 12 6 0 6 5 11 12 11 6 0
8 -3 5 -7 -4 -3 -3 -11 2 -17 20 -25 47 -282 33 -304 -9 -13 -16 29 -28 148
-6 62 -15 100 -23 100 -13 0 -21 -27 -21 -67 0 -52 39 -236 54 -253 14 -16 52
-171 62 -255 7 -49 27 -85 48 -85 6 0 6 4 -2 8 -13 9 -6 42 9 42 4 0 6 7 3 15
-4 8 -9 13 -13 11 -4 -3 -13 57 -19 132 -7 75 -17 173 -23 217 -7 44 -13 100
-15 125 -2 25 -6 60 -10 77 -3 18 -2 33 3 33 12 0 37 -86 29 -99 -4 -6 0 -40
9 -77 8 -37 13 -69 10 -72 -3 -3 1 -12 7 -20 14 -16 55 -127 69 -189 11 -43
22 -54 33 -30 3 6 4 3 1 -9 -7 -26 4 -56 16 -48 15 9 10 50 -11 106 -11 28
-17 54 -14 57 5 6 25 -23 24 -34 -1 -9 62 -126 66 -122 8 8 -28 97 -37 91 -5
-3 -8 5 -8 18 2 23 -42 163 -55 175 -3 4 -6 13 -6 21 0 12 3 12 15 2 8 -7 15
-21 15 -32 0 -17 2 -18 15 -4 20 19 19 46 -1 46 -8 0 -13 4 -9 10 10 17 35 -1
35 -26 0 -14 6 -24 14 -24 8 0 17 -14 21 -30 4 -17 13 -30 21 -30 9 0 13 -4 9
-9 -3 -6 3 -14 12 -20 10 -6 13 -11 6 -11 -6 0 -15 5 -18 10 -9 14 -25 3 -25
-17 0 -11 6 -14 21 -10 15 4 19 2 15 -9 -6 -16 19 -20 29 -4 4 6 8 27 10 47 2
25 0 32 -6 22 -7 -12 -9 -12 -9 2 0 8 5 20 12 27 8 8 6 24 -10 63 -12 28 -19
55 -16 61 3 5 -2 20 -11 34 -9 14 -15 28 -12 30 8 8 79 -95 73 -105 -4 -5 -2
-12 3 -15 5 -4 12 -2 16 4 3 5 25 -11 47 -38 69 -79 131 -138 123 -117 -4 11
-7 30 -6 43 0 15 -3 21 -11 16 -7 -4 -8 -3 -4 4 7 12 4 17 -104 132 -38 41
-70 78 -70 82 0 4 -15 15 -32 24 -33 17 -117 101 -118 118 0 5 -16 26 -35 47
-19 22 -35 46 -35 53 0 8 -10 22 -22 30 -26 19 -7 21 25 4 21 -11 21 -10 7 8
-8 10 -19 22 -25 26 -5 4 -6 10 -2 14 4 4 8 5 10 3 2 -2 26 -31 53 -64 27 -33
58 -71 69 -84 47 -57 101 -117 118 -129 9 -7 17 -19 17 -27 0 -7 8 -16 18 -20
9 -3 42 -37 72 -75 55 -69 113 -108 103 -70 -3 10 1 21 8 25 8 5 10 4 5 -3
-11 -18 4 -38 15 -21 8 12 11 11 19 -1 13 -21 13 -4 -1 23 -13 26 -58 67 -72
67 -12 0 -49 42 -42 48 3 3 23 -9 44 -26 42 -34 61 -40 61 -19 -1 6 -35 37
-76 67 -41 30 -91 67 -112 82 -20 15 -42 31 -47 35 -6 5 -36 28 -68 51 -32 24
-56 46 -53 49 5 6 109 -66 114 -79 2 -5 8 -8 14 -8 6 0 30 -14 55 -30 24 -17
48 -28 53 -25 5 3 15 -1 22 -9 8 -7 28 -12 47 -10 24 3 44 -4 76 -26 24 -17
48 -30 54 -30 21 0 11 18 -21 39 -18 11 -29 21 -24 21 6 0 -9 14 -32 31 -43
32 -53 49 -27 49 16 0 21 25 6 35 -5 3 -13 0 -18 -7 -8 -13 -9 -18 -12 -40 -1
-10 -3 -10 -9 -1 -4 6 -43 30 -87 53 -73 38 -166 97 -222 140 -21 16 -22 19
-6 31 15 12 16 12 10 -4 -5 -12 -1 -17 11 -17 10 0 37 -9 60 -20 72 -35 226
-86 246 -82 13 3 16 0 11 -9 -5 -7 -4 -10 2 -6 6 4 26 1 44 -7 39 -16 133 -20
124 -6 -3 6 -12 10 -20 10 -7 0 -15 7 -19 15 -3 8 -14 15 -23 15 -10 0 -29 7
-41 16 -12 8 -22 12 -22 8 0 -5 -5 -3 -12 4 -7 7 -22 12 -34 12 -13 0 -26 5
-29 10 -3 6 -15 10 -26 10 -33 0 -206 74 -221 95 -4 5 -4 13 -1 19 3 5 1 6 -5
2 -6 -3 -14 -1 -18 5 -5 9 6 10 42 6 108 -13 219 -37 222 -47 2 -5 20 -10 40
-10 21 -1 73 -7 117 -15 44 -8 124 -18 178 -21 85 -6 97 -5 97 9 0 21 -19 32
-52 28 -16 -1 -28 2 -28 7 0 5 -23 10 -51 11 -28 0 -56 4 -62 8 -26 17 -76 30
-84 22 -9 -9 -93 1 -183 20 -38 8 -33 9 33 4 64 -4 77 -3 77 9 0 18 -108 38
-218 40 -40 0 -71 2 -70 3 2 0 16 9 32 19 16 10 25 13 22 7 -4 -6 0 -11 8 -11
9 0 16 4 16 9 0 4 10 7 23 5 47 -7 186 -24 277 -33 72 -7 99 -6 110 3 8 7 33
13 55 15 58 3 95 11 95 21 0 5 -12 9 -27 8 -59 -2 -184 15 -171 23 7 5 -37 9
-102 9 -118 0 -160 6 -160 21 0 5 7 5 17 2 11 -4 14 -3 9 5 -5 9 41 12 184 12
189 0 191 0 199 23 5 12 7 25 4 30 -2 4 2 7 9 8 15 0 -20 17 -39 18 -6 1 -13
-9 -15 -21 -2 -18 -10 -23 -38 -25 -31 -2 -35 1 -36 23 -1 13 2 24 8 24 5 0 7
-4 3 -9 -3 -5 -1 -12 4 -15 13 -8 42 4 36 15 -7 11 40 23 54 14 6 -3 11 1 11
9 0 8 12 16 28 19 23 3 22 4 -8 6 -19 1 -42 6 -50 12 -11 7 -4 9 26 4 37 -6
42 -4 47 16 8 31 1 39 -32 33 -16 -4 -32 -1 -35 5 -5 7 -15 6 -32 -5 -17 -11
-36 -15 -61 -11 -19 4 -58 1 -85 -4 -62 -14 -74 -5 -16 12 49 14 72 28 75 47
4 16 -17 15 -73 -4 -25 -8 -48 -13 -50 -11 -3 3 16 11 41 18 45 13 59 34 29
46 -9 3 -39 -2 -66 -12 -27 -9 -60 -15 -74 -12 -13 2 -27 0 -30 -5 -3 -5 -15
-6 -26 -2 -15 4 -18 3 -13 -7 6 -9 3 -11 -9 -6 -10 4 -23 7 -29 7 -17 1 32 40
49 40 8 0 14 7 14 16 0 8 5 12 10 9 6 -3 13 1 16 9 3 9 10 14 14 11 4 -2 15 4
24 14 15 16 15 19 1 24 -8 4 -15 10 -15 14 0 9 55 36 66 33 4 -1 10 2 13 7 9
13 88 73 95 73 4 0 16 9 28 20 l22 20 -24 0 c-13 0 -34 -10 -47 -22 -16 -15
-34 -21 -64 -20 -39 2 -95 -17 -171 -58 -20 -11 -46 -20 -58 -20 -14 0 -19 -4
-14 -12 5 -8 2 -9 -9 -5 -10 3 -17 2 -17 -3 0 -6 -4 -10 -10 -10 -20 0 -9 21
27 53 105 90 275 258 269 264 -2 3 -14 -5 -25 -16 -24 -24 -41 -26 -60 -8 -11
10 -13 9 -8 -5 8 -22 -8 -24 -17 -3 -10 26 -30 17 -91 -39 -37 -35 -63 -52
-73 -48 -11 4 -14 1 -9 -11 8 -22 -21 -46 -34 -26 -7 11 -9 11 -9 -3 0 -10 -5
-18 -10 -18 -17 0 26 63 83 123 23 24 27 35 20 50 -7 14 -12 17 -17 9 -4 -7
-2 -12 3 -12 6 0 11 -4 11 -10 0 -5 -8 -10 -18 -10 -10 0 -23 -5 -30 -12 -6
-6 -14 -9 -18 -6 -6 7 20 51 48 82 10 11 18 27 17 35 0 11 -3 9 -9 -5 -9 -23
-52 -54 -74 -54 -9 0 -23 -12 -33 -27 -38 -63 -88 -123 -101 -123 -7 0 -10 -5
-7 -10 4 -6 -7 -24 -24 -41 -17 -17 -31 -25 -31 -19 0 7 -8 10 -20 7 -21 -6
-21 -5 16 50 12 18 25 29 29 25 5 -4 5 -2 1 5 -8 15 62 126 74 118 6 -4 10 4
10 15 0 22 29 82 43 88 4 2 7 11 8 20 0 11 2 12 6 5 2 -7 11 -13 19 -13 11 0
14 12 13 49 -1 32 4 59 14 75 20 30 34 106 19 106 -5 0 -20 -24 -32 -54 -12
-29 -29 -62 -39 -73 -10 -10 -16 -24 -13 -31 2 -6 -5 -12 -15 -12 -15 0 -16
-2 -3 -10 13 -9 12 -13 -7 -28 -11 -9 -23 -26 -25 -37 -2 -11 -10 -20 -18 -20
-8 0 -16 -9 -19 -20 -2 -11 -10 -29 -17 -40 -11 -16 -14 -16 -14 -3 0 25 30
91 49 105 10 8 12 12 4 13 -7 0 -13 6 -13 14 0 8 -7 16 -15 20 -11 4 -19 -9
-32 -54 -9 -33 -20 -57 -24 -54 -4 2 -8 -4 -8 -13 1 -31 -27 -107 -35 -95 -4
6 -1 22 5 34 7 13 14 32 15 43 2 11 7 34 12 52 6 17 8 34 4 37 -3 3 -1 6 5 6
11 0 25 37 28 73 1 10 10 24 20 31 14 10 15 17 6 33 -8 16 -8 22 2 26 9 3 9 8
1 16 -9 10 -17 1 -34 -36 -35 -77 -82 -213 -130 -380 -11 -40 -25 -75 -30 -78
-6 -3 -10 -15 -10 -26 0 -11 -4 -17 -10 -14 -5 3 -10 -1 -10 -9 0 -24 -25 -19
-39 7 -10 18 -8 40 8 117 10 52 27 144 36 204 15 91 15 110 4 118 -11 7 -11
11 -1 15 18 7 4 23 -15 16 -12 -5 -15 -2 -10 10 3 9 2 17 -3 17 -5 0 -12 -12
-16 -27 -3 -16 -8 -35 -10 -43 -7 -21 -44 -318 -45 -365 -1 -22 -3 -32 -6 -22
-2 9 -10 17 -18 17 -10 0 -13 52 -14 267 -1 147 -4 277 -7 289 -3 12 -15 25
-26 27 -16 5 -18 3 -9 -6z m285 -501 c-3 -13 -14 -26 -24 -29 -17 -4 -17 -2
-3 40 12 36 18 42 25 30 5 -9 6 -27 2 -41z m-377 -3 c-3 -10 -5 -2 -5 17 0 19
2 27 5 18 2 -10 2 -26 0 -35z m90 -75 c-3 -8 -6 -5 -6 6 -1 11 2 17 5 13 3 -3
4 -12 1 -19z m513 -23 c13 -15 8 -19 -22 -16 -10 1 -18 -4 -18 -13 0 -9 -4
-16 -10 -16 -14 0 -13 8 8 35 20 29 25 30 42 10z m-835 -25 c-6 -9 -9 -9 -16
1 -10 17 0 34 13 21 6 -6 7 -16 3 -22z m252 -12 c-3 -8 -6 -5 -6 6 -1 11 2 17
5 13 3 -3 4 -12 1 -19z m-668 -38 c0 -8 -5 -4 -13 10 -7 14 -10 29 -8 34 6 11
20 -20 21 -44z m548 8 c-3 -7 -5 -2 -5 12 0 14 2 19 5 13 2 -7 2 -19 0 -25z
m-110 16 c-3 -3 -12 -4 -19 -1 -8 3 -5 6 6 6 11 1 17 -2 13 -5z m627 -9 c-4
-8 -12 -15 -20 -15 -17 0 -18 17 -1 23 22 9 27 7 21 -8z m-539 -11 c1 -17 45
-94 54 -94 13 0 34 -57 25 -71 -4 -8 -3 -10 4 -5 7 4 12 1 13 -6 2 -36 10 -53
38 -80 23 -22 31 -26 31 -14 0 9 5 16 10 16 6 0 10 -18 10 -40 0 -22 4 -40 9
-40 11 0 22 110 15 152 -5 31 -5 32 10 14 9 -11 16 -29 16 -40 0 -12 5 -28 10
-36 7 -11 10 -7 10 18 0 41 29 75 56 66 16 -6 17 -5 7 7 -17 18 -16 39 1 39
18 0 13 -76 -9 -139 -18 -53 -18 -52 0 -45 8 4 15 17 15 31 0 22 2 24 16 12
13 -10 17 -10 24 0 4 8 13 11 19 7 7 -5 9 -1 5 9 -5 11 -2 14 10 9 13 -5 15
-2 10 12 -4 11 -4 16 1 12 4 -4 27 14 51 40 24 25 46 43 50 39 4 -4 -2 -17
-13 -30 -29 -32 -45 -65 -34 -72 5 -3 12 -1 16 5 3 5 16 15 27 21 l21 12 -21
-28 c-15 -19 -19 -32 -12 -44 10 -19 -20 -44 -42 -36 -9 4 -14 -2 -15 -15 -2
-26 13 -25 81 5 65 29 73 30 57 11 -9 -11 -9 -15 1 -19 17 -6 -14 -32 -64 -53
-24 -10 -35 -20 -31 -30 3 -8 -1 -14 -8 -14 -7 0 -10 -3 -6 -6 3 -3 30 1 59 9
68 20 163 43 207 51 28 5 32 4 22 -8 -7 -8 -22 -12 -34 -9 -18 4 -19 3 -7 -6
14 -10 13 -12 -10 -15 -6 0 -15 -8 -20 -16 -7 -12 -38 -16 -132 -20 l-123 -5
77 -8 c43 -5 80 -13 84 -18 3 -5 20 -9 39 -9 20 0 35 -6 39 -16 3 -8 2 -13 -3
-10 -5 3 -14 0 -20 -8 -9 -11 -9 -15 1 -19 9 -4 7 -6 -4 -6 -9 -1 -19 -7 -21
-13 -3 -8 -6 -7 -6 4 -1 9 -6 20 -13 24 -7 4 -8 3 -4 -4 5 -8 -2 -12 -21 -12
l-28 -1 27 -12 c19 -9 23 -15 15 -22 -7 -5 -19 -10 -28 -10 -19 0 -89 46 -89
59 0 5 8 2 18 -7 11 -10 23 -13 31 -8 9 6 5 11 -16 16 -15 5 -33 7 -39 6 -6 0
-17 6 -24 14 -7 8 -19 15 -26 15 -10 0 -9 -5 5 -19 12 -12 17 -28 14 -43 -3
-15 2 -31 12 -41 15 -15 15 -18 1 -33 -9 -8 -16 -23 -16 -32 -1 -15 -3 -14
-16 3 -13 17 -16 18 -24 5 -8 -13 -10 -13 -10 2 0 22 -14 30 -35 22 -17 -7
-17 -20 -1 -102 3 -15 1 -20 -6 -16 -7 5 -9 1 -5 -9 3 -10 2 -17 -3 -17 -6 0
-10 8 -11 18 -1 9 -5 2 -9 -17 -5 -19 -6 -40 -3 -47 2 -6 0 -15 -6 -19 -7 -4
-11 4 -11 20 0 14 -4 24 -9 21 -5 -3 -11 3 -14 14 -3 11 -1 20 4 20 5 0 7 12
4 28 -4 15 -8 37 -11 50 -6 28 -24 19 -24 -11 0 -18 -2 -19 -10 -7 -8 12 -10
8 -11 -15 -1 -16 -2 -38 -1 -47 1 -10 -5 -18 -14 -18 -9 0 -14 6 -12 13 3 6
-4 21 -15 31 -17 16 -19 17 -14 3 3 -9 2 -17 -3 -17 -11 0 -12 15 -4 48 5 16
13 22 28 20 17 -2 21 2 22 28 1 27 -2 31 -27 31 -16 0 -29 -5 -29 -10 0 -5 -8
-16 -17 -23 -17 -13 -17 -14 0 -8 24 8 13 -17 -14 -34 -12 -8 -18 -9 -15 -3 4
6 -4 13 -19 17 -33 8 -32 14 11 52 20 18 31 32 25 32 -6 0 -11 6 -11 14 0 18
-40 28 -57 14 -10 -8 -18 -7 -31 4 -9 9 -29 18 -44 22 -31 7 -38 26 -10 27 15
0 14 2 -3 10 -15 7 -12 8 15 4 22 -3 42 1 54 10 25 19 16 27 -36 32 -24 3 -45
8 -48 12 -3 5 -23 9 -45 9 -69 0 -71 1 -49 17 12 9 14 14 6 15 -7 0 -10 5 -7
10 7 11 95 7 114 -4 16 -10 14 3 -3 20 -8 7 -16 10 -19 6 -2 -4 -2 -1 -1 6 3
10 -6 11 -34 7 -26 -5 -33 -4 -22 4 10 7 3 10 -30 13 -36 2 -44 6 -42 21 3 20
-8 22 -28 5 -12 -11 -12 -10 -1 4 7 10 11 25 7 33 -8 21 -5 20 63 -25 33 -22
66 -40 73 -40 7 0 29 -13 48 -29 23 -18 46 -28 65 -27 17 1 29 4 28 9 -2 4 -3
14 -3 22 0 18 -39 55 -58 55 -12 0 -11 -5 4 -22 l19 -22 -30 21 c-16 11 -39
30 -49 42 -11 12 -25 21 -32 21 -7 0 -16 5 -20 12 -4 7 -3 8 4 4 7 -4 12 -3
12 3 0 6 7 8 15 5 8 -4 15 -12 15 -20 0 -7 10 -18 22 -25 18 -10 20 -9 15 5
-3 8 -1 18 5 22 5 4 6 9 1 13 -20 14 -73 90 -73 104 0 8 -12 25 -27 36 -25 18
-26 20 -8 21 11 0 33 -16 49 -35 16 -19 33 -35 37 -35 14 0 69 -59 69 -74 0
-9 8 -16 19 -16 10 0 30 -12 45 -27 53 -52 35 -14 -29 63 -36 43 -63 84 -61
90 2 6 0 16 -6 22 -8 8 -48 106 -48 118 0 7 35 -5 35 -12z m194 4 c-1 -7 3
-26 10 -42 8 -20 9 -32 1 -40 -6 -6 -11 -6 -11 0 -1 5 -3 19 -4 30 -1 12 -5
26 -9 33 -4 6 -4 16 -1 21 9 14 16 13 14 -2z m291 -7 c0 -10 -9 -29 -19 -42
l-20 -24 3 25 c7 52 36 85 36 41z m-323 -41 c-5 -31 -17 -36 -17 -7 0 15 4 27
10 27 5 0 9 -9 7 -20z m283 10 c0 -5 -4 -10 -10 -10 -5 0 -10 5 -10 10 0 6 5
10 10 10 6 0 10 -4 10 -10z m-640 -15 c11 -13 10 -14 -4 -9 -9 3 -16 10 -16
15 0 13 6 11 20 -6z m565 5 c3 -5 1 -10 -5 -10 -7 0 -9 -8 -5 -19 3 -11 0 -21
-8 -24 -9 -3 -12 4 -9 29 4 34 15 43 27 24z m310 0 c3 -5 1 -10 -4 -10 -6 0
-11 5 -11 10 0 6 2 10 4 10 3 0 8 -4 11 -10z m181 -16 c-9 -24 3 -37 21 -22
13 10 15 9 12 -7 -2 -10 -19 -25 -38 -33 -32 -12 -34 -12 -22 2 8 9 15 26 16
39 4 34 5 37 11 37 3 0 3 -7 0 -16z m-428 -6 c7 -9 6 -23 -3 -45 -8 -18 -15
-33 -17 -33 -2 0 -4 14 -5 30 -1 17 2 30 7 30 6 0 10 5 10 11 0 5 -4 7 -10 4
-5 -3 -10 -1 -10 4 0 15 15 14 28 -1z m-886 -21 c4 -7 8 -8 8 -4 0 5 27 -6 60
-25 57 -31 74 -48 49 -48 -6 0 -9 -7 -6 -15 4 -8 2 -17 -3 -20 -9 -6 -50 11
-60 25 -3 3 -31 23 -62 44 -39 26 -55 42 -51 52 6 18 53 11 65 -9z m1090 -9
c-8 -8 -9 -4 -5 13 4 13 8 18 11 10 2 -7 -1 -18 -6 -23z m-463 -46 c1 -52 -2
-72 -14 -82 -13 -10 -15 -9 -16 6 -1 11 0 24 1 29 2 6 2 30 1 54 -2 36 7 58
25 61 1 0 2 -31 3 -68z m51 44 c0 -2 -7 -7 -16 -10 -8 -3 -12 -2 -9 4 6 10 25
14 25 6z m360 -36 c0 -5 -5 -10 -11 -10 -5 0 -7 5 -4 10 3 6 8 10 11 10 2 0 4
-4 4 -10z m180 -1 c5 9 10 8 20 -4 9 -11 9 -15 1 -15 -7 0 -9 -5 -5 -12 4 -7
3 -8 -4 -4 -6 3 -16 -2 -21 -13 -8 -13 -24 -20 -55 -22 -40 -4 -43 -2 -34 15
5 10 18 21 29 23 10 3 16 9 13 14 -3 5 5 13 18 18 14 5 24 5 27 -1 2 -6 6 -6
11 1z m-868 -69 c18 -16 30 -30 26 -30 -15 0 -87 47 -81 53 11 12 21 8 55 -23z
m-248 -22 c-3 -4 0 -8 5 -8 6 0 11 -5 11 -11 0 -6 -17 -1 -37 12 -56 33 -59
38 -14 26 22 -6 38 -14 35 -19z m86 13 c0 -5 -14 -8 -31 -6 -45 6 -49 15 -6
15 21 0 37 -4 37 -9z m1040 -1 c0 -13 -34 -30 -62 -30 -20 0 -18 3 12 19 42
22 50 24 50 11z m335 0 c-27 -12 -43 -12 -25 0 8 5 22 9 30 9 10 0 8 -3 -5 -9z
m-1410 -20 c3 -5 2 -10 -4 -10 -5 0 -13 5 -16 10 -3 6 -2 10 4 10 5 0 13 -4
16 -10z m835 -5 c-7 -8 -18 -15 -24 -15 -6 0 -2 7 8 15 25 19 32 19 16 0z
m440 1 c0 -2 -9 -6 -20 -9 -11 -3 -18 -1 -14 4 5 9 34 13 34 5z m-55 -16 c-3
-5 -12 -10 -18 -10 -7 0 -6 4 3 10 19 12 23 12 15 0z m-1145 -10 c0 -5 -4 -10
-10 -10 -5 0 -10 5 -10 10 0 6 5 10 10 10 6 0 10 -4 10 -10z m855 -10 c-27
-12 -43 -12 -25 0 8 5 22 9 30 9 10 0 8 -3 -5 -9z m615 -10 c0 -5 -19 -9 -42
-9 l-43 2 40 7 c22 4 41 8 43 9 1 0 2 -3 2 -9z m-90 -10 c0 -5 -15 -10 -34
-10 -19 0 -38 -5 -41 -10 -3 -6 -18 -7 -32 -4 -19 5 -24 4 -18 -5 6 -10 -8
-12 -58 -9 -48 2 -63 0 -60 -9 6 -14 -8 -21 -47 -25 -14 -2 -28 -7 -31 -11 -8
-10 -59 10 -59 23 0 6 4 9 9 6 5 -3 21 0 37 8 16 8 76 21 134 30 58 8 116 17
130 19 49 8 70 7 70 -3z m93 -17 c-13 -2 -33 -2 -45 0 -13 2 -3 4 22 4 25 0
35 -2 23 -4z m-83 -57 c0 -17 -31 -26 -94 -26 -58 0 -54 8 11 26 63 17 83 17
83 0z m-1390 -36 c0 -5 -5 -10 -11 -10 -5 0 -7 5 -4 10 3 6 8 10 11 10 2 0 4
-4 4 -10z m30 1 c0 -6 -4 -12 -8 -15 -5 -3 -9 1 -9 9 0 8 4 15 9 15 4 0 8 -4
8 -9z m-138 -52 c29 -7 62 -13 73 -14 11 -1 24 -3 28 -4 5 0 5 -6 1 -13 -5 -8
-2 -9 9 -5 9 3 19 1 23 -4 4 -7 10 -7 17 0 15 15 27 14 27 -4 0 -20 -16 -22
-115 -11 -101 10 -216 24 -299 36 -44 6 -96 9 -115 6 -20 -2 -28 -2 -18 0 9 3
17 10 17 15 0 13 288 11 352 -2z m1188 1 c0 -5 -2 -10 -4 -10 -3 0 -8 5 -11
10 -3 6 -1 10 4 10 6 0 11 -4 11 -10z m-1545 -101 c-5 -14 -2 -17 9 -13 8 3
23 1 33 -6 16 -10 15 -10 -4 -5 -14 4 -23 2 -23 -4 0 -6 -21 -11 -51 -11 -36
0 -49 4 -46 13 2 6 16 11 31 9 14 -1 26 2 26 8 0 5 -7 10 -15 10 -8 0 -15 4
-15 9 0 5 14 9 30 9 25 -1 29 -4 25 -19z m546 -3 c5 3 9 0 9 -6 0 -6 -20 -10
-50 -9 -28 1 -48 4 -46 7 10 9 71 18 74 10 2 -4 8 -6 13 -2z m956 -22 c-3 -3
-12 -4 -19 -1 -8 3 -5 6 6 6 11 1 17 -2 13 -5z m-943 -31 c-18 -18 -22 -20
-57 -22 -10 0 -16 -4 -14 -8 3 -5 -16 -6 -41 -4 l-47 4 45 12 c25 7 63 19 85
27 48 17 54 15 29 -9z m169 -34 c-8 -8 -13 -7 -18 2 -5 8 -4 10 3 5 7 -4 12
-2 12 5 0 7 3 9 7 6 4 -4 2 -12 -4 -18z m464 9 c3 6 11 12 19 12 10 0 11 -6 4
-25 -5 -14 -6 -25 -2 -25 4 0 -1 -5 -12 -11 -14 -9 -20 -8 -27 2 -5 8 -9 10
-9 6 0 -12 -30 20 -30 31 0 16 23 21 39 8 11 -8 15 -8 18 2z m-509 -63 c-15
-13 -24 -26 -21 -29 4 -3 1 -6 -5 -6 -18 0 -25 20 -11 36 6 8 14 12 17 10 2
-3 11 2 19 10 9 8 18 12 22 9 3 -4 -6 -17 -21 -30z m477 5 c10 -11 13 -20 7
-20 -7 0 -21 9 -32 20 -14 14 -16 20 -7 20 8 0 22 -9 32 -20z m-375 0 c0 -5
-2 -10 -4 -10 -3 0 -8 5 -11 10 -3 6 -1 10 4 10 6 0 11 -4 11 -10z m-306 -6
c29 -11 17 -30 -31 -47 -61 -22 -80 -23 -63 -2 6 8 15 13 18 12 4 -1 17 8 30
21 25 25 24 24 46 16z m241 -14 c-3 -5 -1 -10 5 -10 7 0 10 -6 7 -13 -3 -7 4
-19 15 -26 19 -12 18 -13 -14 -59 -19 -26 -38 -56 -42 -67 -7 -19 -8 -19 -18
-2 -12 22 -4 48 14 45 6 -2 13 10 14 26 2 16 6 36 9 44 4 11 0 13 -20 8 -24
-6 -25 -5 -15 14 6 11 17 20 25 20 8 0 14 3 14 8 -2 12 1 22 7 22 3 0 2 -4 -1
-10z m415 -10 c0 -5 -2 -10 -4 -10 -3 0 -8 5 -11 10 -3 6 -1 10 4 10 6 0 11
-4 11 -10z m167 -14 c15 -13 25 -27 22 -30 -9 -10 -69 27 -69 42 0 19 16 15
47 -12z m-661 3 c8 -13 -13 -29 -40 -29 -18 0 -18 1 -1 20 21 23 31 25 41 9z
m134 -19 c0 -5 -4 -10 -9 -10 -6 0 -13 5 -16 10 -3 6 1 10 9 10 9 0 16 -4 16
-10z m25 -47 l-18 -28 25 23 c30 27 38 28 31 2 -3 -11 -9 -18 -13 -15 -5 3 -6
-4 -3 -14 3 -11 -7 -46 -23 -78 -15 -32 -27 -61 -26 -65 1 -4 -5 -5 -13 -2
-18 7 -20 -7 -4 -23 8 -8 5 -27 -12 -70 -12 -32 -25 -78 -28 -103 -4 -28 -11
-44 -19 -42 -7 1 -11 -1 -11 -5 3 -21 -3 -23 -18 -7 -10 9 -17 27 -16 38 10
110 15 136 30 136 10 0 13 6 9 16 -3 9 -6 23 -6 31 0 14 -2 14 -19 -1 -19 -17
-19 -17 -4 25 13 38 56 89 76 89 4 0 7 9 7 19 0 11 7 26 15 35 8 8 15 17 15
21 0 11 33 56 38 51 2 -3 -3 -18 -13 -33z m-465 17 c-8 -5 -19 -10 -25 -10 -5
0 -3 5 5 10 8 5 20 10 25 10 6 0 3 -5 -5 -10z m242 -20 c-29 -28 -52 -39 -52
-23 0 15 45 53 63 53 16 0 14 -4 -11 -30z m375 -2 c-3 -7 -5 -2 -5 12 0 14 2
19 5 13 2 -7 2 -19 0 -25z m-297 -22 c-5 -15 -14 -24 -20 -21 -15 9 -12 26 7
47 21 24 27 11 13 -26z m650 34 c0 -5 -2 -10 -4 -10 -3 0 -8 5 -11 10 -3 6 -1
10 4 10 6 0 11 -4 11 -10z m-1015 -9 c-15 -14 -117 -53 -123 -46 -7 7 -5 8 53
32 54 23 85 29 70 14z m633 -28 c-2 -9 -10 -18 -18 -20 -12 -4 -13 -3 -1 5 7
5 10 15 7 21 -4 6 -2 11 4 11 6 0 10 -8 8 -17z m-408 -11 c0 -16 -37 -52 -53
-52 -11 0 -8 8 12 30 26 29 41 37 41 22z m630 -31 c0 -26 26 -46 43 -33 10 9
20 -1 44 -41 36 -61 93 -181 93 -195 0 -5 7 -22 15 -38 8 -15 12 -30 10 -32
-7 -7 -25 9 -25 24 0 11 -33 64 -77 123 -2 2 -6 1 -10 -3 -4 -3 1 -20 11 -36
9 -17 13 -30 8 -30 -14 0 -35 57 -28 76 3 8 0 25 -8 36 -10 14 -15 16 -18 6
-5 -14 -58 82 -58 106 0 8 -6 19 -13 23 -8 4 -16 18 -19 30 -5 20 -4 21 13 12
10 -5 19 -18 19 -28z m-288 -19 c-6 -2 -12 -13 -12 -24 0 -12 -2 -19 -5 -16
-3 3 -3 25 1 49 7 41 8 42 18 19 8 -17 8 -24 -2 -28z m64 12 c-3 -9 -6 -18 -6
-20 0 -3 -4 -2 -10 1 -6 4 -10 -7 -10 -27 0 -25 -3 -29 -10 -18 -14 21 -12 33
8 58 20 25 37 29 28 6z m184 -48 c-1 -21 -1 -21 -15 -2 -21 27 -20 53 0 36 8
-7 15 -22 15 -34z m-433 18 c3 -9 2 -19 -3 -23 -6 -3 -17 -21 -26 -40 -10 -21
-18 -29 -23 -21 -10 15 3 62 15 55 6 -3 10 5 10 19 0 29 17 35 27 10z m-245
-29 c-3 -5 -7 -4 -10 3 -6 20 -22 13 -19 -9 1 -12 -5 -24 -13 -26 -13 -4 -13
-3 0 7 12 9 12 13 2 17 -10 4 -10 9 3 23 13 15 20 16 30 7 7 -7 10 -16 7 -22z
m-65 -25 c-1 -11 -7 -18 -13 -16 -7 3 -14 -3 -17 -13 -4 -17 -74 -57 -83 -48
-3 3 10 15 28 28 18 13 44 34 58 46 30 28 29 28 27 3z m-177 6 c0 -3 -4 -8
-10 -11 -5 -3 -10 -1 -10 4 0 6 5 11 10 11 6 0 10 -2 10 -4z m75 -16 c-10 -11
-21 -18 -23 -15 -3 3 3 12 14 20 27 20 30 18 9 -5z m-35 -16 c0 -8 -5 -12 -10
-9 -6 4 -8 11 -5 16 9 14 15 11 15 -7z m594 -70 c-9 -36 -20 -66 -23 -68 -8
-6 -6 55 4 79 36 94 46 89 19 -11z m126 16 c0 -49 -3 -58 -15 -54 -17 7 -21
54 -4 54 6 0 7 5 2 13 -13 20 -5 46 15 47 1 0 2 -27 2 -60z m-354 4 c-4 -9 -9
-15 -11 -12 -3 3 -3 13 1 22 4 9 9 15 11 12 3 -3 3 -13 -1 -22z m196 -129 c0
-32 -14 -85 -23 -85 -5 0 -7 -4 -4 -10 3 -5 1 -10 -6 -10 -7 0 -9 10 -5 30 3
17 9 44 12 60 6 28 25 39 26 15z m-171 -17 c-9 -25 -31 -36 -31 -16 0 15 19
38 32 38 4 0 4 -10 -1 -22z m52 -66 c-2 -7 0 -11 5 -11 25 4 33 -1 20 -15 -9
-10 -17 -11 -26 -4 -9 8 -16 6 -26 -8 -20 -27 -28 -13 -14 24 8 21 18 31 28
29 8 -2 14 -9 13 -15z m895 -7 c-3 -3 -9 2 -12 12 -6 14 -5 15 5 6 7 -7 10
-15 7 -18z m-908 -69 c0 -7 -8 -16 -17 -20 -10 -3 -24 -9 -30 -12 -7 -3 -13
-1 -13 5 0 6 7 11 16 11 14 0 14 3 4 15 -11 13 -8 15 14 15 15 0 26 -6 26 -14z"/>
<path d="M1162 1335 c0 -16 2 -22 5 -12 2 9 2 23 0 30 -3 6 -5 -1 -5 -18z"/>
<path d="M1100 1285 c0 -8 4 -15 10 -15 5 0 7 7 4 15 -4 8 -8 15 -10 15 -2 0
-4 -7 -4 -15z"/>
<path d="M1508 1193 c7 -3 16 -2 19 1 4 3 -2 6 -13 5 -11 0 -14 -3 -6 -6z"/>
<path d="M1438 1133 c7 -3 16 -2 19 1 4 3 -2 6 -13 5 -11 0 -14 -3 -6 -6z"/>
<path d="M972 668 c-5 -7 -6 -22 -2 -33 7 -19 7 -19 18 2 21 38 8 61 -16 31z"/>
<path d="M1075 2230 c-8 -13 15 -24 27 -12 6 6 4 11 -6 15 -8 3 -18 2 -21 -3z"/>
<path d="M1546 2227 c3 -10 9 -15 12 -12 3 3 0 11 -7 18 -10 9 -11 8 -5 -6z"/>
<path d="M1570 2200 c0 -19 20 -27 33 -13 8 7 -11 33 -24 33 -5 0 -9 -9 -9
-20z"/>
<path d="M1578 2141 c11 -31 42 -36 42 -7 0 8 -11 16 -24 18 -19 4 -23 1 -18
-11z"/>
<path d="M1578 2081 c-12 -15 -13 -21 -4 -24 17 -7 30 4 34 26 4 23 -9 22 -30
-2z"/>
<path d="M2195 2060 c-9 -15 3 -30 20 -24 7 3 11 12 8 20 -6 16 -19 18 -28 4z"/>
<path d="M2067 2040 c-20 -24 -22 -40 -4 -40 17 0 37 34 28 48 -5 8 -12 5 -24
-8z"/>
<path d="M710 2033 c0 -5 4 -15 10 -23 5 -8 5 -17 0 -20 -5 -3 -1 -16 9 -29
18 -23 18 -23 23 -3 4 15 2 19 -8 15 -8 -3 -14 -1 -14 5 0 6 5 12 11 14 8 3 8
10 -2 26 -14 22 -29 29 -29 15z"/>
<path d="M2115 2031 c-7 -12 12 -24 25 -16 11 7 4 25 -10 25 -5 0 -11 -4 -15
-9z"/>
<path d="M1403 2010 c-23 -53 -42 -107 -58 -165 -9 -33 -21 -68 -27 -78 -15
-30 -2 -31 21 -1 11 15 21 35 21 45 0 10 5 21 10 24 6 3 10 16 10 28 0 12 9
46 21 76 21 57 23 121 2 71z"/>
<path d="M2090 2012 c0 -12 19 -26 26 -19 2 2 -2 10 -11 17 -9 8 -15 8 -15 2z"/>
<path d="M2135 1989 c-4 -6 -5 -13 -2 -16 7 -7 27 6 27 18 0 12 -17 12 -25 -2z"/>
<path d="M2085 1970 c-11 -17 5 -32 21 -19 8 6 14 15 14 20 0 12 -27 11 -35
-1z"/>
<path d="M2000 1955 c0 -10 7 -15 18 -13 21 4 19 22 -2 26 -10 2 -16 -3 -16
-13z"/>
<path d="M540 1925 c0 -8 7 -15 15 -15 8 0 15 7 15 15 0 8 -7 15 -15 15 -8 0
-15 -7 -15 -15z"/>
<path d="M2136 1932 c-3 -6 -1 -14 5 -17 15 -10 25 3 12 16 -7 7 -13 7 -17 1z"/>
<path d="M1795 1900 c-3 -5 1 -10 10 -10 9 0 13 5 10 10 -3 6 -8 10 -10 10 -2
0 -7 -4 -10 -10z"/>
<path d="M2074 1889 c-3 -6 -2 -15 2 -19 12 -12 38 5 30 19 -9 14 -23 14 -32
0z"/>
<path d="M2231 1829 c9 -17 13 -19 19 -8 11 16 4 29 -16 29 -12 0 -13 -4 -3
-21z"/>
<path d="M2206 1792 c-8 -13 17 -62 32 -62 6 0 12 8 12 18 0 22 -35 57 -44 44z"/>
<path d="M290 1720 c0 -5 5 -10 10 -10 6 0 10 5 10 10 0 6 -4 10 -10 10 -5 0
-10 -4 -10 -10z"/>
<path d="M220 1601 c0 -5 7 -14 16 -22 13 -10 17 -10 24 1 5 8 6 18 4 22 -7
11 -44 10 -44 -1z"/>
<path d="M340 1600 c0 -5 7 -10 15 -10 8 0 15 5 15 10 0 6 -7 10 -15 10 -8 0
-15 -4 -15 -10z"/>
<path d="M2120 1439 c-13 -9 -12 -10 3 -5 9 3 17 1 17 -4 0 -16 27 -11 34 5 7
18 -31 21 -54 4z"/>
<path d="M2240 1440 c0 -5 5 -10 10 -10 6 0 10 5 10 10 0 6 -4 10 -10 10 -5 0
-10 -4 -10 -10z"/>
<path d="M75 1210 c-3 -5 5 -12 19 -16 14 -3 30 -12 37 -20 14 -17 -2 -19 -20
-1 -11 10 -13 9 -8 -5 4 -10 -1 -18 -12 -21 -10 -2 -18 -12 -18 -21 0 -10 6
-15 14 -12 7 3 13 0 13 -7 0 -6 7 -1 16 11 8 12 21 22 28 22 8 0 13 13 14 31
1 26 -3 30 -18 26 -11 -3 -24 1 -31 9 -13 16 -25 18 -34 4z"/>
<path d="M34 1109 c-9 -15 10 -31 29 -23 14 5 14 8 2 20 -16 17 -22 17 -31 3z"/>
<path d="M120 1103 c0 -7 -7 -13 -15 -13 -8 0 -15 -4 -15 -10 0 -5 -3 -9 -7
-9 -5 1 -17 1 -28 0 -17 -1 -15 -4 9 -16 33 -18 58 -13 50 9 -3 8 1 16 10 18
11 2 13 7 6 18 -6 10 -10 11 -10 3z"/>
<path d="M2005 909 c-10 -15 1 -23 20 -15 9 3 13 10 10 16 -8 13 -22 13 -30
-1z"/>
<path d="M405 873 c2 -10 4 -22 4 -26 1 -5 5 -6 10 -3 12 8 7 39 -7 44 -6 2
-9 -5 -7 -15z"/>
<path d="M2160 865 c-10 -12 -10 -19 -2 -27 7 -7 12 -10 13 -7 3 15 5 49 4 49
-2 0 -8 -7 -15 -15z"/>
<path d="M2090 810 c0 -5 7 -10 15 -10 8 0 15 5 15 10 0 6 -7 10 -15 10 -8 0
-15 -4 -15 -10z"/>
<path d="M2130 770 c0 -7 -8 -10 -20 -7 -20 5 -28 -7 -11 -17 15 -10 72 6 68
18 -5 15 -37 20 -37 6z"/>
<path d="M2226 773 c-11 -11 -6 -23 9 -23 8 0 15 4 15 9 0 13 -16 22 -24 14z"/>
<path d="M230 740 l-35 -19 38 -1 c30 0 37 3 37 20 0 11 -1 20 -2 20 -2 -1
-19 -9 -38 -20z"/>
<path d="M2177 732 c-9 -2 -14 -8 -10 -14 4 -8 0 -9 -11 -5 -14 6 -16 3 -10
-16 10 -32 12 -33 35 -10 24 24 22 50 -4 45z"/>
<path d="M2232 724 c-11 -12 -9 -13 7 -11 11 2 24 7 28 12 5 4 3 5 -4 2 -6 -4
-13 -3 -15 2 -1 5 -9 3 -16 -5z"/>
<path d="M2106 713 c-11 -11 -6 -23 9 -23 8 0 15 4 15 9 0 13 -16 22 -24 14z"/>
<path d="M2026 694 c-9 -22 -8 -24 9 -24 8 0 15 6 15 14 0 22 -17 28 -24 10z"/>
<path d="M235 670 c-3 -5 3 -10 15 -10 12 0 18 5 15 10 -3 6 -10 10 -15 10 -5
0 -12 -4 -15 -10z"/>
<path d="M318 563 c7 -3 16 -2 19 1 4 3 -2 6 -13 5 -11 0 -14 -3 -6 -6z"/>
<path d="M1934 488 c-8 -12 -5 -14 29 -22 34 -8 35 5 2 21 -16 7 -27 8 -31 1z"/>
<path d="M2016 435 c4 -8 11 -15 16 -15 6 0 5 6 -2 15 -7 8 -14 15 -16 15 -2
0 -1 -7 2 -15z"/>
<path d="M555 370 c-3 -5 -2 -10 4 -10 5 0 13 5 16 10 3 6 2 10 -4 10 -5 0
-13 -4 -16 -10z"/>
<path d="M1740 356 c0 -9 5 -16 10 -16 6 0 10 4 10 9 0 6 -4 13 -10 16 -5 3
-10 -1 -10 -9z"/>
<path d="M755 350 c-3 -5 -1 -10 4 -10 6 0 11 5 11 10 0 6 -2 10 -4 10 -3 0
-8 -4 -11 -10z"/>
<path d="M1722 291 c2 -7 7 -12 11 -12 12 1 9 15 -3 20 -7 2 -11 -2 -8 -8z"/>
<path d="M1962 180 c7 -11 16 -20 20 -20 5 0 3 9 -4 20 -7 11 -16 20 -20 20
-5 0 -3 -9 4 -20z"/>
<path d="M524 169 c-8 -14 18 -31 30 -19 9 9 0 30 -14 30 -5 0 -12 -5 -16 -11z"/>
<path d="M780 81 c0 -11 4 -21 9 -21 18 0 21 18 6 30 -13 10 -15 9 -15 -9z"/>
<path d="M660 36 c0 -9 7 -16 16 -16 17 0 14 22 -4 28 -7 2 -12 -3 -12 -12z"/>
</g>
</svg>
